<?xml version="1.0" encoding="UTF-8" standalone="no"?>
<svg
   width="30"
   height="30"
   viewBox="0 0 30 30"
   fill="none"
   version="1.1"
   id="svg696"
   sodipodi:docname="favicon.svg"
   inkscape:version="1.2.2 (b0a8486541, 2022-12-01)"
   xmlns:inkscape="http://www.inkscape.org/namespaces/inkscape"
   xmlns:sodipodi="http://sodipodi.sourceforge.net/DTD/sodipodi-0.dtd"
   xmlns="http://www.w3.org/2000/svg"
   xmlns:svg="http://www.w3.org/2000/svg">
  <sodipodi:namedview
     id="namedview698"
     pagecolor="#ffffff"
     bordercolor="#000000"
     borderopacity="0.25"
     inkscape:showpageshadow="2"
     inkscape:pageopacity="0.0"
     inkscape:pagecheckerboard="0"
     inkscape:deskcolor="#d1d1d1"
     showgrid="false"
     inkscape:zoom="26.166667"
     inkscape:cx="14.980892"
     inkscape:cy="15.038217"
     inkscape:window-width="1920"
     inkscape:window-height="1011"
     inkscape:window-x="0"
     inkscape:window-y="0"
     inkscape:window-maximized="1"
     inkscape:current-layer="svg696" />
  <defs
     id="defs694">
    <linearGradient
       id="paint0_linear_112102_1824"
       x1="5.62978"
       y1="11.5889"
       x2="2.57161"
       y2="14.6471"
       gradientUnits="userSpaceOnUse">
      <stop
         stop-color="#023B95"
         id="stop684" />
      <stop
         offset="0.9637"
         stop-color="#096CD9"
         stop-opacity="0"
         id="stop686" />
    </linearGradient>
    <linearGradient
       id="paint1_linear_112102_1824"
       x1="23.2722"
       y1="11.6281"
       x2="25.7451"
       y2="14.4382"
       gradientUnits="userSpaceOnUse">
      <stop
         stop-color="#023B95"
         id="stop689" />
      <stop
         offset="1"
         stop-color="#096DD9"
         stop-opacity="0"
         id="stop691" />
    </linearGradient>
    <rect
       x="153.91991"
       y="380.98203"
       width="433.42648"
       height="203.72694"
       id="rect1" />
    <rect
       x="271.80597"
       y="927.77948"
       width="249.49103"
       height="149.65446"
       id="rect4" />
  </defs>
  <g
     id="_1439962160"
     style="clip-rule:evenodd;fill:#000000;fill-rule:evenodd;image-rendering:optimizeQuality;shape-rendering:geometricPrecision;text-rendering:geometricPrecision"
     transform="matrix(0.0058511,0,0,0.0058511,-9.1624385,-19.41566)">
    <path
       class="fil1 str0"
       d="m 4209,4530 -269,480 c -344,-194 -677,-241 -1001,-141 -273,84 -475,249 -605,493 -130,244 -153,502 -69,775 59,190 153,346 281,468 128,123 281,202 458,240 178,37 359,27 545,-30 158,-48 293,-122 406,-221 113,-100 224,-251 332,-455 l 488,273 c -147,271 -302,475 -466,613 -162,138 -365,244 -606,318 -444,136 -851,108 -1221,-87 -370,-194 -622,-512 -757,-951 -88,-285 -102,-558 -41,-819 61,-261 190,-495 390,-704 198,-209 436,-356 714,-441 235,-73 477,-93 727,-61 248,33 480,116 694,250 z"
       id="path1"
       style="fill:#000000;fill-rule:nonzero;stroke:#333333;stroke-width:12.5" />
    <path
       id="path5352-2-7-7-9-0-4"
       class="fil2 str0"
       d="m 3841,7010 333,-439 c 313,239 637,331 971,277 282,-46 505,-181 667,-405 162,-224 219,-477 174,-760 -32,-196 -103,-364 -214,-502 -110,-139 -251,-239 -421,-300 -171,-62 -352,-77 -543,-46 -163,27 -307,81 -433,163 -125,83 -924,999 -1060,1186 l -446,-335 c 184,-248 1035,-1210 1215,-1325 181,-113 396,-189 644,-230 459,-74 859,10 1199,252 339,244 545,594 619,1049 48,294 24,566 -71,816 -97,251 -258,466 -482,645 -227,179 -483,292 -769,339 -243,39 -486,26 -727,-41 -243,-66 -462,-181 -656,-344 z"
       style="fill:#000000;stroke:#333333;stroke-width:12.5" />
    <polygon
       id="rect5692-9-8-7-0-4-8"
       class="fil2 str0"
       points="6621,7418 6099,7418 4985,6199 5508,6199 "
       style="fill:#000000;stroke:#333333;stroke-width:12.5" />
    <polygon
       id="rect5692-9-8-7-0-4-8_0"
       class="fil2 str0"
       points="6621,7418 6099,7418 4985,6199 5508,6199 "
       style="fill:#000000;stroke:#333333;stroke-width:12.5" />
  </g>
</svg>
